<svg xmlns="http://www.w3.org/2000/svg" width="24" height="24" viewBox="0 0 24 24" fill="none">
  <path
    d="M20 10C20 14.4183 12 19 12 19C12 19 4 14.4183 4 10C4 7.79086 5.79086 6 8 6C9.86384 6 11.4299 7.27477 12 9C12.5701 7.27477 14.1362 6 16 6C18.2091 6 20 7.79086 20 10Z"
    stroke="#FF6B35"
    strokeWidth="2"
    strokeLinecap="round"
    strokeLinejoin="round"
  />
  <path
    d="M16 6C14.1362 6 12.5701 7.27477 12 9C11.4299 7.27477 9.86384 6 8 6C5.79086 6 4 7.79086 4 10C4 14.4183 12 19 12 19"
    stroke="#FF6B35"
    strokeWidth="2"
    strokeLinecap="round"
    strokeLinejoin="round"
  />
  <circle cx="20" cy="16" r="2" stroke="#FF6B35" strokeWidth="2"/>
  <path
    d="M20 18V20"
    stroke="#FF6B35"
    strokeWidth="2"
    strokeLinecap="round"
  />
</svg>